<?xml version="1.0" encoding="utf-8"?>
<!-- Generator: Adobe Illustrator 16.0.4, SVG Export Plug-In . SVG Version: 6.00 Build 0)  -->
<!DOCTYPE svg PUBLIC "-//W3C//DTD SVG 1.1//EN" "http://www.w3.org/Graphics/SVG/1.1/DTD/svg11.dtd">
<svg version="1.1" id="Layer_1" xmlns="http://www.w3.org/2000/svg" xmlns:xlink="http://www.w3.org/1999/xlink" x="0px" y="0px"
	 width="559.649px" height="245.041px" viewBox="0 0 559.649 245.041" enable-background="new 0 0 559.649 245.041"
	 xml:space="preserve">
<g>
	<path fill="#D5A029" d="M104.494,112.287c0-1.747,1.528-14.407-9.386-14.189c-3.056,0-9.168,1.31-9.168,9.822
		c0,6.331,4.802,8.732,14.406,13.534l20.083,10.042c3.274,1.964,6.112,3.492,8.95,5.675c8.077,5.893,9.387,12.224,9.387,21.829
		c0,1.746,0.436,12.223-3.494,19.863c-4.801,9.823-17.68,18.118-41.255,18.118c-13.752,0-32.088-3.056-39.292-16.808
		c-2.62-5.239-3.493-10.478-3.493-22.047l33.397,0.219c-0.655,7.64,0.218,11.351,3.929,13.751c1.091,0.655,2.62,1.528,5.675,1.528
		c7.858,0,9.387-5.894,9.387-8.732c0-6.33-4.803-9.167-9.823-11.569l-16.371-8.949c-10.041-5.457-14.844-8.294-18.554-12.661
		c-5.894-6.548-6.549-14.407-6.549-22.702C52.543,92.423,58,86.53,64.984,81.945c8.731-5.675,19.646-7.204,29.906-7.204
		c14.843,0,33.397,3.275,39.946,18.992c2.62,6.112,2.62,12.224,2.62,18.554H104.494z"/>
	<path fill="#D5A029" d="M186.79,234.744h-34.708V78.016h34.708V90.24c0.436-0.437,3.711-5.457,6.767-8.076
		c3.711-3.492,10.041-7.422,21.828-7.422c18.118,0,24.448,11.351,26.632,18.554c1.09,3.93,1.309,8.077,1.309,12.225l0.219,52.606
		c-0.219,4.147-0.219,8.294-0.655,12.442c-3.056,23.793-18.118,26.413-28.377,26.413c-2.62,0-12.224-0.218-20.082-5.675
		c-3.929-3.056-6.549-6.767-7.64-8.076V234.744z M186.79,158.126c0,2.62-0.654,14.189,11.132,14.189c0.655,0,3.274,0,5.239-0.874
		c6.767-3.056,5.894-12.661,5.894-13.533v-44.094c0-3.275,0.655-13.315-10.915-13.534c-11.569,0.219-11.351,9.387-11.351,13.098
		V158.126z"/>
	<path fill="#D5A029" d="M347.668,157.471c0,3.057,0,5.894-0.218,8.732c-0.436,5.238-1.745,16.152-13.533,24.229
		c-5.675,3.711-14.625,6.984-29.687,6.984c-17.026,0-26.849-4.147-32.743-8.512c-1.747-1.091-5.676-4.147-8.294-8.95
		c-3.93-7.422-4.147-15.717-4.147-24.012v-39.945c0.218-7.422,0.218-15.498,3.492-22.483c4.803-10.259,17.026-18.554,40.819-18.554
		c10.696,0,22.047,1.528,31.215,7.64c1.528,0.873,5.458,3.492,8.077,7.858c4.802,7.204,5.02,14.625,5.02,22.92V157.471z
		 M293.316,161.401c0,3.056,0,11.351,10.041,11.351c10.696,0,10.042-10.915,10.042-13.097v-47.804
		c0-2.401,0.873-13.098-10.042-13.098c-1.31,0-3.492,0-5.675,1.747c-4.147,2.837-4.365,7.64-4.365,12.005V161.401z"/>
	<path fill="#D5A029" d="M400.058,121.891l24.23-43.875h38.854l-31.216,49.769l33.618,66.14h-38.856l-26.631-59.155v59.155h-34.488
		V39.816h34.488V121.891z"/>
	<path fill="#D5A029" d="M503.747,143.72v18.99c0,3.056,0,11.133,9.822,11.133c1.529,0,8.078,0,10.26-6.112
		c0.653-1.747,0.653-3.711,0.653-5.458v-6.767h33.398c0,12.878,0,24.667-11.35,33.179c-4.585,3.275-9.17,4.803-11.134,5.458
		c-6.111,2.182-15.279,3.056-21.828,3.056c-2.619,0-25.757,0.217-36.891-12.661c-8.075-9.168-7.857-21.829-8.075-33.179v-31.433
		c0.655-16.371,2.182-23.792,6.548-30.779c5.894-9.167,16.591-14.407,37.981-14.407c2.182,0,30.995-1.091,39.946,17.246
		c2.619,5.238,3.493,10.695,3.493,22.483v29.25H503.747z M523.829,121.674v-12.006c0-2.183,0.653-12.879-9.604-12.661
		c-10.915,0-10.478,9.823-10.478,12.661v12.006H523.829z"/>
</g>
<polygon fill="#D5A029" points="20.527,2.659 3,19.88 3.169,50.268 44.035,90.695 44.035,67.441 84.217,67.169 101.064,50.268 
	100.892,20.29 83.671,2.487 "/>
<polygon fill="#FFFFFF" points="49.271,43.402 46.69,38.622 49.357,36.04 53.941,38.292 55.535,37.907 57.127,32.854 61.115,32.826 
	62.346,37.798 63.939,38.292 68.609,36.04 71.246,38.896 68.883,43.182 69.377,44.72 74.377,46.314 74.407,50.268 70.038,51.477 
	69.213,53.125 71.41,57.795 68.609,60.542 64.213,58.345 62.621,58.729 61.115,64.006 57.237,64.107 55.753,58.893 53.996,58.125 
	49.545,60.651 46.854,57.85 49.107,53.455 48.776,51.861 43.503,50.268 43.474,46.369 48.173,44.885 "/>
<g>
	<defs>
		<rect id="SVGID_1_" x="3" y="-9.574" width="762.311" height="269.107"/>
	</defs>
	<clipPath id="SVGID_2_">
		<use xlink:href="#SVGID_1_"  overflow="visible"/>
	</clipPath>
	<path clip-path="url(#SVGID_2_)" fill="#FFFFFF" d="M58.941,60.461c6.551,0,11.862-5.37,11.862-11.996
		c0-6.625-5.311-11.996-11.862-11.996c-6.551,0-11.862,5.371-11.862,11.996C47.079,55.092,52.39,60.461,58.941,60.461"/>
	<path clip-path="url(#SVGID_2_)" fill="#D5A029" d="M58.941,55.214c3.685,0,6.672-3.021,6.672-6.748
		c0-3.727-2.987-6.747-6.672-6.747c-3.686,0-6.672,3.02-6.672,6.747C52.269,52.193,55.255,55.214,58.941,55.214"/>
</g>
</svg>
